<?xml version="1.0" encoding="utf-8"?>
<!-- Generator: Adobe Illustrator 25.0.1, SVG Export Plug-In . SVG Version: 6.00 Build 0)  -->
<svg version="1.1" id="Capa_1" xmlns="http://www.w3.org/2000/svg" xmlns:xlink="http://www.w3.org/1999/xlink" x="0px" y="0px"
	 viewBox="0 0 1701 1129" style="enable-background:new 0 0 1701 1129;" xml:space="preserve">
<style type="text/css">
	.st0{clip-path:url(#XMLID_2_);fill:url(#XMLID_3_);}
	.st1{clip-path:url(#XMLID_2_);}
	.st2{opacity:0.5;clip-path:url(#XMLID_4_);fill:url(#XMLID_5_);}
	.st3{clip-path:url(#XMLID_4_);fill:url(#XMLID_6_);}
	.st4{clip-path:url(#XMLID_4_);fill:url(#XMLID_7_);}
	.st5{fill:#50535A;}
	.st6{clip-path:url(#XMLID_2_);fill:#26C8D1;}
	.st7{clip-path:url(#XMLID_2_);fill:#FFFFFF;}
	.st8{fill:none;}
</style>
<g id="XMLID_43_">
	<defs>
		<rect id="XMLID_42_" x="-21.5" y="0.22" width="1748" height="1133.74"/>
	</defs>
	<clipPath id="XMLID_2_">
		<use xlink:href="#XMLID_42_"  style="overflow:visible;"/>
	</clipPath>
	<linearGradient id="XMLID_3_" gradientUnits="userSpaceOnUse" x1="1259.595" y1="-35.266" x2="-462.9445" y2="1687.2733">
		<stop  offset="0" style="stop-color:#26C8D1"/>
		<stop  offset="0.1519" style="stop-color:#22B2CB"/>
		<stop  offset="0.4687" style="stop-color:#1879BB"/>
		<stop  offset="0.9203" style="stop-color:#091FA2"/>
		<stop  offset="1" style="stop-color:#060E9D"/>
	</linearGradient>
	<rect id="XMLID_44_" x="-490.61" y="-7.6" class="st0" width="2295.69" height="1149.39"/>
	<g id="XMLID_187_" class="st1">
		<defs>
			<rect id="XMLID_190_" x="-394.29" y="145.57" width="2208.33" height="1293.42"/>
		</defs>
		<clipPath id="XMLID_4_">
			<use xlink:href="#XMLID_190_"  style="overflow:visible;"/>
		</clipPath>
		<linearGradient id="XMLID_5_" gradientUnits="userSpaceOnUse" x1="935.4938" y1="960.3264" x2="2291.9968" y2="960.3264">
			<stop  offset="0" style="stop-color:#26C8D1"/>
			<stop  offset="0.1519" style="stop-color:#22B2CB"/>
			<stop  offset="0.4687" style="stop-color:#1879BB"/>
			<stop  offset="0.9203" style="stop-color:#091FA2"/>
			<stop  offset="1" style="stop-color:#060E9D"/>
		</linearGradient>
		<ellipse id="XMLID_189_" class="st2" cx="1613.75" cy="960.33" rx="678.25" ry="748.42"/>
		<linearGradient id="XMLID_6_" gradientUnits="userSpaceOnUse" x1="929.1426" y1="1038.0835" x2="2285.6455" y2="1038.0835">
			<stop  offset="0" style="stop-color:#26C8D1"/>
			<stop  offset="0.1519" style="stop-color:#22B2CB"/>
			<stop  offset="0.4687" style="stop-color:#1879BB"/>
			<stop  offset="0.9203" style="stop-color:#091FA2"/>
			<stop  offset="1" style="stop-color:#060E9D"/>
		</linearGradient>
		<ellipse id="XMLID_188_" class="st3" cx="1607.39" cy="1038.08" rx="678.25" ry="748.42"/>
		<linearGradient id="XMLID_7_" gradientUnits="userSpaceOnUse" x1="2163.3933" y1="867.7972" x2="903.2261" y2="1290.3861">
			<stop  offset="0" style="stop-color:#060E9D"/>
			<stop  offset="0.0797" style="stop-color:#091FA2"/>
			<stop  offset="0.5313" style="stop-color:#1879BB"/>
			<stop  offset="0.8481" style="stop-color:#22B2CB"/>
			<stop  offset="1" style="stop-color:#26C8D1"/>
		</linearGradient>
		<ellipse id="XMLID_46_" class="st4" cx="1648.44" cy="1040.48" rx="678.25" ry="748.42"/>
	</g>
	<g id="XMLID_78_" class="st1">
		<path id="XMLID_97_" class="st5" d="M1545.73,852.33c-9.1-27.79-36.91-42.15-62.08-32.11c-25.19,10.05-38.22,40.71-29.12,68.5
			c6.18,18.87,20.98,31.52,37.73,34.58l-9.99-33.76c-4.48-13.66,1.94-28.74,14.33-33.69l1.27-0.51c9.76-3.89,20.53,1.68,24.05,12.45
			l13.06,39.86C1547.39,893.45,1552.22,872.16,1545.73,852.33z"/>
		<path id="XMLID_90_" class="st5" d="M1521.91,867.79c-3.53-10.77-14.3-16.34-24.05-12.45l-1.27,0.51
			c-12.39,4.94-18.8,20.03-14.33,33.69l9.99,33.76l22,74.39c0.27,2.46,16.75,53.7,16.75,53.7c-5.36-2.84-11.37-6.15-16.87-9.41
			c-12.84-7.61-32.13-8.49-43.76-5.44c-6.13,1.6-10.33,4.28-12.51,7.96c-0.69,1.19-1.33,2.46-1.9,3.78
			c-3.71,8.57-4.75,20.42,1.71,26.23c2.8,2.55,6.5,3.5,10.41,4.49c5.2,1.33,13.36,1.77,21.15,7.14
			c13.06,9.04,42.96,28.97,60.59,38.94c3.24,0.76,10.85,4.69,14,5.19c9.87,2.45,18.16,5.16,21.38,7.13
			c2.51,1.54,14.95,3.28,14.95,3.28c10.43,2.54,27.69,1.93,45.53-5.19c17.81-7.1,34.37-12.38,42.52-28.76l0.64-0.26l0.03-1
			c8.14-17.14,10.11-37.19,3.94-56.03c-1.53-4.66-7.15-21.83-8.21-25.06l-21.29-64.98c-1.45-4.41-7.17-18.85-19.9-18.8
			c-6.11,0.04-10.97,2.88-14.65,6.7l-1,0.46l-0.31,0.15c-4.62-7.34-11.24-10.64-18.94-9.14c-9.29,1.82-14.41,7.12-17.1,11.49
			c-6.44-7.15-15.17-8.73-24.71-3.89c-7.15,3.63-11.32,9.81-13.58,16.67l-18.15-55.41L1521.91,867.79z"/>
		<path id="XMLID_89_" class="st5" d="M1629.25,913.48l12.69,7.5c2.45,1.47,5.56,0.08,6.33-2.88c8.69-33.68,7.78-69.68-3.31-103.5
			c-28.77-87.81-116.91-133.4-196.47-101.66c-5.46,2.18-10.89,4.72-16.14,7.58c-63.73,34.65-97.75,115.1-80.89,191.29
			c9.17,41.46,31.49,76.57,62.33,99.84c2.29,1.75,5.49,0.61,6.55-2.25l5.4-14.71c0.77-2.08,0.1-4.45-1.56-5.76
			c-22.14-17.58-38.89-42.44-47.63-71.76c-21.23-71.15,11.22-149.37,73.88-178.07c69.22-31.94,147.88,7.16,173.08,84.05
			c9.02,27.51,10.08,57,3.58,84.8C1626.59,910.14,1627.44,912.42,1629.25,913.48z"/>
		<path id="XMLID_79_" class="st5" d="M1572.37,879.84l13.44,7.94c2.75,1.64,6.13-0.33,6.5-3.75c1.73-15.61,0.16-31.39-4.8-46.52
			c-14.78-45.11-56.72-72.96-99.76-66.24c-12.56,1.93-24.83,6.82-35.64,14.22c-36.96,25.2-53.06,76.21-38.28,121.32
			c4.96,15.14,12.9,28.37,23.26,39.15c2.29,2.36,6,1.5,7.18-1.71l5.72-15.58c0.64-1.75,0.28-3.72-0.86-5.11
			c-6.05-7.35-10.78-15.93-13.85-25.3c-9.88-30.16-1.53-64.31,20.78-84.95c12.47-11.52,28.54-17.93,44.79-17.87
			c29.12,0.12,55.32,20.48,65.2,50.64c3.07,9.38,4.41,19.31,4.04,29.22C1570.01,877.19,1570.87,878.96,1572.37,879.84z"/>
	</g>
	<path id="XMLID_77_" class="st6" d="M1557.4,853.18c-9.1-27.79-36.91-42.15-62.08-32.11c-25.19,10.05-38.22,40.71-29.12,68.5
		c6.18,18.87,20.98,31.52,37.73,34.58l-9.99-33.76c-4.48-13.66,1.94-28.74,14.33-33.69l1.27-0.51c9.76-3.89,20.53,1.68,24.05,12.45
		l13.06,39.86C1559.06,894.29,1563.9,873.01,1557.4,853.18z"/>
	<path id="XMLID_76_" class="st7" d="M1533.59,868.64c-3.53-10.77-14.3-16.34-24.05-12.45l-1.27,0.51
		c-12.39,4.94-18.8,20.03-14.33,33.69l9.99,33.76l22,74.39c0.27,2.46,16.75,53.7,16.75,53.7c-5.36-2.84-11.37-6.15-16.87-9.41
		c-12.84-7.61-32.13-8.49-43.76-5.44c-6.13,1.6-10.33,4.28-12.51,7.96c-0.69,1.19-1.33,2.46-1.9,3.78
		c-3.71,8.57-4.75,20.42,1.71,26.23c2.8,2.55,6.5,3.5,10.41,4.49c5.2,1.33,13.36,1.77,21.15,7.14
		c13.06,9.04,42.96,28.97,60.59,38.94c3.24,0.76,10.85,4.69,14,5.19c9.87,2.45,18.16,5.16,21.38,7.13
		c2.51,1.54,14.95,3.28,14.95,3.28c10.43,2.55,27.69,1.93,45.53-5.19c17.81-7.1,34.37-12.38,42.52-28.76l0.64-0.26l0.03-1
		c8.14-17.14,10.11-37.19,3.94-56.03c-1.53-4.66-7.15-21.83-8.21-25.06l-21.29-64.98c-1.45-4.41-7.17-18.85-19.9-18.8
		c-6.11,0.04-10.97,2.88-14.65,6.7l-1,0.46l-0.31,0.15c-4.62-7.34-11.24-10.64-18.94-9.14c-9.29,1.82-14.41,7.12-17.1,11.49
		c-6.44-7.15-15.17-8.73-24.71-3.89c-7.15,3.63-11.32,9.81-13.58,16.67l-18.15-55.41L1533.59,868.64z"/>
	<path id="XMLID_75_" class="st7" d="M1640.93,914.32l12.69,7.5c2.45,1.47,5.56,0.08,6.33-2.88c8.69-33.68,7.78-69.68-3.31-103.5
		c-28.77-87.81-116.91-133.4-196.47-101.66c-5.46,2.18-10.89,4.72-16.14,7.58c-63.73,34.65-97.75,115.1-80.89,191.29
		c9.17,41.46,31.49,76.57,62.33,99.84c2.29,1.75,5.49,0.61,6.55-2.25l5.4-14.71c0.77-2.08,0.1-4.45-1.56-5.76
		c-22.14-17.58-38.89-42.44-47.63-71.76c-21.23-71.15,11.22-149.37,73.88-178.07c69.22-31.94,147.88,7.16,173.08,84.05
		c9.02,27.51,10.08,57,3.58,84.8C1638.26,910.99,1639.12,913.27,1640.93,914.32z"/>
	<path id="XMLID_72_" class="st6" d="M1584.04,880.69l13.44,7.94c2.75,1.64,6.13-0.33,6.5-3.75c1.73-15.61,0.16-31.39-4.8-46.52
		c-14.78-45.11-56.72-72.96-99.76-66.24c-12.56,1.93-24.83,6.82-35.64,14.22c-36.96,25.2-53.06,76.21-38.28,121.32
		c4.96,15.14,12.9,28.37,23.26,39.15c2.29,2.36,6,1.5,7.18-1.71l5.72-15.58c0.64-1.75,0.28-3.72-0.86-5.11
		c-6.05-7.35-10.78-15.93-13.85-25.3c-9.88-30.16-1.53-64.31,20.78-84.95c12.47-11.52,28.54-17.93,44.79-17.87
		c29.12,0.12,55.32,20.48,65.2,50.64c3.07,9.38,4.41,19.31,4.04,29.22C1581.68,878.03,1582.54,879.81,1584.04,880.69z"/>
</g>
<rect id="XMLID_186_" x="167.5" y="202.95" class="st8" width="1438" height="841.89"/>
</svg>
