<svg xmlns="http://www.w3.org/2000/svg" xmlns:xlink="http://www.w3.org/1999/xlink" viewBox="0 0 664 373" width="664" height="373"><path d="M 51.000,172.500 C 48.952,177.318 48.500,177.000 46.000,181.500" stroke-width="4.984" stroke="black" fill="none" stroke-linecap="round"></path><path d="M 46.000,181.500 C 42.318,185.352 42.952,185.818 39.000,189.500" stroke-width="3.810" stroke="black" fill="none" stroke-linecap="round"></path><path d="M 39.000,189.500 C 34.280,195.348 34.318,195.352 30.000,201.500" stroke-width="3.259" stroke="black" fill="none" stroke-linecap="round"></path><path d="M 30.000,201.500 C 26.114,206.791 26.280,206.848 23.000,212.500" stroke-width="3.206" stroke="black" fill="none" stroke-linecap="round"></path><path d="M 23.000,212.500 C 19.898,217.806 20.114,217.791 18.000,223.500" stroke-width="3.205" stroke="black" fill="none" stroke-linecap="round"></path><path d="M 18.000,223.500 C 16.505,228.451 16.398,228.306 16.000,233.500" stroke-width="3.416" stroke="black" fill="none" stroke-linecap="round"></path><path d="M 16.000,233.500 C 15.452,238.567 15.505,238.451 16.000,243.500" stroke-width="3.503" stroke="black" fill="none" stroke-linecap="round"></path><path d="M 16.000,243.500 C 16.790,247.568 16.452,247.567 18.000,251.500" stroke-width="3.647" stroke="black" fill="none" stroke-linecap="round"></path><path d="M 18.000,251.500 C 18.320,254.579 18.790,254.068 20.000,256.500" stroke-width="4.063" stroke="black" fill="none" stroke-linecap="round"></path><path d="M 20.000,256.500 C 22.716,259.754 21.820,258.579 25.000,259.500" stroke-width="4.872" stroke="black" fill="none" stroke-linecap="round"></path><path d="M 25.000,259.500 C 27.122,257.613 27.216,259.254 29.000,255.500" stroke-width="4.837" stroke="black" fill="none" stroke-linecap="round"></path><path d="M 29.000,255.500 C 35.163,248.634 35.122,248.613 41.000,241.500" stroke-width="3.111" stroke="black" fill="none" stroke-linecap="round"></path><path d="M 41.000,241.500 C 47.882,231.451 48.663,232.134 56.000,222.500" stroke-width="2.444" stroke="black" fill="none" stroke-linecap="round"></path><path d="M 56.000,222.500 C 67.688,210.164 67.382,209.951 80.000,198.500" stroke-width="2.075" stroke="black" fill="none" stroke-linecap="round"></path><path d="M 80.000,198.500 C 87.641,193.114 86.688,192.164 94.000,186.500" stroke-width="2.522" stroke="black" fill="none" stroke-linecap="round"></path><path d="M 94.000,186.500 C 99.808,179.723 100.141,180.114 105.000,172.500" stroke-width="2.619" stroke="black" fill="none" stroke-linecap="round"></path><path d="M 105.000,172.500 C 111.893,163.984 111.308,163.723 117.000,154.500" stroke-width="2.574" stroke="black" fill="none" stroke-linecap="round"></path><path d="M 117.000,154.500 C 122.236,144.253 122.393,144.484 126.000,133.500" stroke-width="2.449" stroke="black" fill="none" stroke-linecap="round"></path><path d="M 126.000,133.500 C 128.554,124.014 129.236,124.253 131.000,114.500" stroke-width="2.502" stroke="black" fill="none" stroke-linecap="round"></path><path d="M 131.000,114.500 C 132.496,106.326 133.054,106.514 135.000,98.500" stroke-width="2.739" stroke="black" fill="none" stroke-linecap="round"></path><path d="M 135.000,98.500 C 137.275,94.100 136.496,93.826 139.000,89.500" stroke-width="3.267" stroke="black" fill="none" stroke-linecap="round"></path><path d="M 139.000,89.500 C 140.511,81.195 140.275,86.100 141.000,82.500" stroke-width="4.103" stroke="black" fill="none" stroke-linecap="round"></path><path d="M 141.000,82.500 C 141.772,89.991 142.011,85.195 142.000,97.500" stroke-width="4.632" stroke="black" fill="none" stroke-linecap="round"></path><path d="M 142.000,97.500 C 142.000,106.500 142.272,106.491 142.000,115.500" stroke-width="3.115" stroke="black" fill="none" stroke-linecap="round"></path><path d="M 142.000,115.500 C 143.158,126.615 142.000,126.500 142.000,137.500" stroke-width="2.619" stroke="black" fill="none" stroke-linecap="round"></path><path d="M 142.000,137.500 C 139.231,149.953 140.658,150.115 137.000,162.500" stroke-width="2.350" stroke="black" fill="none" stroke-linecap="round"></path><path d="M 137.000,162.500 C 135.708,172.536 135.231,172.453 134.000,182.500" stroke-width="2.442" stroke="black" fill="none" stroke-linecap="round"></path><path d="M 134.000,182.500 C 132.107,189.938 132.708,190.036 131.000,197.500" stroke-width="2.784" stroke="black" fill="none" stroke-linecap="round"></path><path d="M 131.000,197.500 C 129.547,210.506 129.107,210.438 128.000,223.500" stroke-width="2.360" stroke="black" fill="none" stroke-linecap="round"></path><path d="M 128.000,223.500 C 127.181,231.528 127.047,231.506 126.000,239.500" stroke-width="2.705" stroke="black" fill="none" stroke-linecap="round"></path><path d="M 126.000,239.500 C 125.350,245.101 125.181,245.028 124.000,250.500" stroke-width="3.103" stroke="black" fill="none" stroke-linecap="round"></path><path d="M 124.000,250.500 C 122.648,252.906 123.350,253.101 122.000,255.500" stroke-width="3.838" stroke="black" fill="none" stroke-linecap="round"></path><path d="M 122.000,255.500 C 121.500,259.000 121.148,258.906 121.000,262.500" stroke-width="4.548" stroke="black" fill="none" stroke-linecap="round"></path><path d="M 121.000,262.500 C 120.581,266.013 120.500,266.000 120.000,269.500" stroke-width="4.075" stroke="black" fill="none" stroke-linecap="round"></path><path d="M 120.000,269.500 C 119.417,275.115 119.081,275.013 118.000,280.500" stroke-width="3.508" stroke="black" fill="none" stroke-linecap="round"></path><path d="M 95.000,201.500 C 98.047,201.057 98.000,201.500 101.000,201.500" stroke-width="5.456" stroke="black" fill="none" stroke-linecap="round"></path><path d="M 101.000,201.500 C 107.928,203.460 108.047,202.557 115.000,204.500" stroke-width="3.439" stroke="black" fill="none" stroke-linecap="round"></path><path d="M 115.000,204.500 C 124.985,205.688 124.928,205.960 135.000,206.500" stroke-width="2.787" stroke="black" fill="none" stroke-linecap="round"></path><path d="M 135.000,206.500 C 143.494,207.216 143.485,207.188 152.000,207.500" stroke-width="2.859" stroke="black" fill="none" stroke-linecap="round"></path><path d="M 152.000,207.500 C 158.500,207.500 158.494,207.716 165.000,207.500" stroke-width="3.026" stroke="black" fill="none" stroke-linecap="round"></path><path d="M 307.000,85.500 C 306.958,88.626 306.500,88.500 306.000,91.500" stroke-width="3.945" stroke="black" fill="none" stroke-linecap="round"></path><path d="M 306.000,91.500 C 302.511,100.504 302.958,100.626 299.000,109.500" stroke-width="2.925" stroke="black" fill="none" stroke-linecap="round"></path><path d="M 299.000,109.500 C 294.288,120.921 294.511,121.004 290.000,132.500" stroke-width="2.452" stroke="black" fill="none" stroke-linecap="round"></path><path d="M 290.000,132.500 C 284.599,148.036 284.288,147.921 279.000,163.500" stroke-width="1.990" stroke="black" fill="none" stroke-linecap="round"></path><path d="M 279.000,163.500 C 274.388,177.157 274.099,177.036 269.000,190.500" stroke-width="2.058" stroke="black" fill="none" stroke-linecap="round"></path><path d="M 269.000,190.500 C 264.406,203.489 263.888,203.157 258.000,215.500" stroke-width="2.072" stroke="black" fill="none" stroke-linecap="round"></path><path d="M 258.000,215.500 C 252.257,226.092 252.406,225.989 245.000,235.500" stroke-width="2.199" stroke="black" fill="none" stroke-linecap="round"></path><path d="M 245.000,235.500 C 238.788,243.929 238.757,243.592 231.000,250.500" stroke-width="2.378" stroke="black" fill="none" stroke-linecap="round"></path><path d="M 231.000,250.500 C 222.597,257.607 222.788,257.429 213.000,262.500" stroke-width="2.445" stroke="black" fill="none" stroke-linecap="round"></path><path d="M 213.000,262.500 C 196.961,271.281 197.097,270.607 180.000,276.500" stroke-width="1.963" stroke="black" fill="none" stroke-linecap="round"></path><path d="M 180.000,276.500 C 170.520,277.886 170.961,279.281 161.000,278.500" stroke-width="2.348" stroke="black" fill="none" stroke-linecap="round"></path><path d="M 161.000,278.500 C 154.965,278.851 155.020,278.886 149.000,278.500" stroke-width="2.941" stroke="black" fill="none" stroke-linecap="round"></path><path d="M 149.000,278.500 C 145.611,279.245 146.465,278.351 144.000,277.500" stroke-width="4.239" stroke="black" fill="none" stroke-linecap="round"></path><path d="M 144.000,277.500 C 139.971,271.739 139.611,272.745 137.000,265.500" stroke-width="4.039" stroke="black" fill="none" stroke-linecap="round"></path><path d="M 137.000,265.500 C 135.757,260.893 134.971,261.239 134.000,256.500" stroke-width="3.729" stroke="black" fill="none" stroke-linecap="round"></path><path d="M 134.000,256.500 C 132.049,253.647 132.757,253.393 131.000,250.500" stroke-width="3.937" stroke="black" fill="none" stroke-linecap="round"></path><path d="M 131.000,250.500 C 129.609,247.430 130.049,247.647 130.000,244.500" stroke-width="4.079" stroke="black" fill="none" stroke-linecap="round"></path><path d="M 130.000,244.500 C 130.897,239.705 130.609,239.930 133.000,235.500" stroke-width="3.679" stroke="black" fill="none" stroke-linecap="round"></path><path d="M 133.000,235.500 C 135.379,230.399 135.397,230.705 139.000,226.500" stroke-width="3.507" stroke="black" fill="none" stroke-linecap="round"></path><path d="M 139.000,226.500 C 142.287,223.622 141.879,223.399 146.000,221.500" stroke-width="3.663" stroke="black" fill="none" stroke-linecap="round"></path><path d="M 146.000,221.500 C 149.370,219.537 149.287,219.622 153.000,218.500" stroke-width="3.766" stroke="black" fill="none" stroke-linecap="round"></path><path d="M 153.000,218.500 C 156.787,216.643 156.370,217.537 160.000,217.500" stroke-width="4.348" stroke="black" fill="none" stroke-linecap="round"></path><path d="M 160.000,217.500 C 164.460,219.466 164.287,218.643 168.000,222.500" stroke-width="4.610" stroke="black" fill="none" stroke-linecap="round"></path><path d="M 168.000,222.500 C 171.049,225.959 171.460,225.466 174.000,229.500" stroke-width="4.479" stroke="black" fill="none" stroke-linecap="round"></path><path d="M 174.000,229.500 C 175.862,232.124 176.049,231.959 178.000,234.500" stroke-width="4.145" stroke="black" fill="none" stroke-linecap="round"></path><path d="M 178.000,234.500 C 180.178,238.987 180.362,237.124 183.000,239.500" stroke-width="4.023" stroke="black" fill="none" stroke-linecap="round"></path><path d="M 358.000,95.500 C 354.292,99.330 354.500,99.500 351.000,103.500" stroke-width="4.250" stroke="black" fill="none" stroke-linecap="round"></path><path d="M 351.000,103.500 C 339.340,118.380 339.292,118.330 328.000,133.500" stroke-width="2.045" stroke="black" fill="none" stroke-linecap="round"></path><path d="M 328.000,133.500 C 317.120,148.589 316.840,148.380 306.000,163.500" stroke-width="1.840" stroke="black" fill="none" stroke-linecap="round"></path><path d="M 306.000,163.500 C 294.964,177.973 295.120,178.089 284.000,192.500" stroke-width="1.753" stroke="black" fill="none" stroke-linecap="round"></path><path d="M 284.000,192.500 C 274.447,204.131 274.964,204.473 266.000,216.500" stroke-width="1.941" stroke="black" fill="none" stroke-linecap="round"></path><path d="M 266.000,216.500 C 260.520,224.760 260.447,224.631 256.000,233.500" stroke-width="2.362" stroke="black" fill="none" stroke-linecap="round"></path><path d="M 256.000,233.500 C 253.414,239.466 253.020,239.260 251.000,245.500" stroke-width="2.885" stroke="black" fill="none" stroke-linecap="round"></path><path d="M 251.000,245.500 C 249.350,249.450 249.414,249.466 248.000,253.500" stroke-width="3.391" stroke="black" fill="none" stroke-linecap="round"></path><path d="M 248.000,253.500 C 247.000,257.000 246.850,256.950 246.000,260.500" stroke-width="4.174" stroke="black" fill="none" stroke-linecap="round"></path><path d="M 246.000,260.500 C 245.150,264.051 245.000,264.000 244.000,267.500" stroke-width="4.469" stroke="black" fill="none" stroke-linecap="round"></path><path d="M 244.000,267.500 C 242.473,272.736 243.150,270.051 242.000,272.500" stroke-width="4.879" stroke="black" fill="none" stroke-linecap="round"></path><path d="M 242.000,272.500 C 241.770,269.484 241.473,272.236 242.000,266.500" stroke-width="5.194" stroke="black" fill="none" stroke-linecap="round"></path><path d="M 242.000,266.500 C 241.398,262.558 242.270,262.984 243.000,259.500" stroke-width="4.274" stroke="black" fill="none" stroke-linecap="round"></path><path d="M 243.000,259.500 C 247.512,252.086 246.898,252.058 253.000,245.500" stroke-width="3.119" stroke="black" fill="none" stroke-linecap="round"></path><path d="M 253.000,245.500 C 257.869,240.361 257.512,240.086 263.000,235.500" stroke-width="3.025" stroke="black" fill="none" stroke-linecap="round"></path><path d="M 263.000,235.500 C 267.028,230.717 267.369,231.361 272.000,227.500" stroke-width="3.207" stroke="black" fill="none" stroke-linecap="round"></path><path d="M 272.000,227.500 C 276.079,224.500 275.528,225.217 280.000,224.500" stroke-width="3.609" stroke="black" fill="none" stroke-linecap="round"></path><path d="M 280.000,224.500 C 284.136,225.015 283.079,224.500 286.000,227.500" stroke-width="4.549" stroke="black" fill="none" stroke-linecap="round"></path><path d="M 286.000,227.500 C 287.241,232.102 288.636,231.015 289.000,236.500" stroke-width="3.785" stroke="black" fill="none" stroke-linecap="round"></path><path d="M 289.000,236.500 C 291.759,241.898 291.241,242.102 294.000,247.500" stroke-width="3.423" stroke="black" fill="none" stroke-linecap="round"></path><path d="M 294.000,247.500 C 296.081,251.906 295.759,251.898 297.000,256.500" stroke-width="3.552" stroke="black" fill="none" stroke-linecap="round"></path><path d="M 297.000,256.500 C 297.230,259.516 297.581,259.406 297.000,262.500" stroke-width="4.343" stroke="black" fill="none" stroke-linecap="round"></path><path d="M 297.000,262.500 C 296.852,268.932 296.730,266.016 296.000,269.500" stroke-width="4.525" stroke="black" fill="none" stroke-linecap="round"></path><path d="M 350.000,224.500 C 346.584,222.506 347.000,224.000 344.000,223.500" stroke-width="5.199" stroke="black" fill="none" stroke-linecap="round"></path><path d="M 344.000,223.500 C 340.250,226.250 340.084,225.006 337.000,229.500" stroke-width="4.610" stroke="black" fill="none" stroke-linecap="round"></path><path d="M 337.000,229.500 C 333.605,232.738 333.750,232.750 331.000,236.500" stroke-width="3.891" stroke="black" fill="none" stroke-linecap="round"></path><path d="M 331.000,236.500 C 329.199,239.383 329.105,239.238 328.000,242.500" stroke-width="3.990" stroke="black" fill="none" stroke-linecap="round"></path><path d="M 328.000,242.500 C 326.548,245.937 326.699,245.883 326.000,249.500" stroke-width="3.902" stroke="black" fill="none" stroke-linecap="round"></path><path d="M 326.000,249.500 C 324.350,253.644 325.548,252.437 326.000,255.500" stroke-width="4.078" stroke="black" fill="none" stroke-linecap="round"></path><path d="M 326.000,255.500 C 329.850,258.320 328.350,258.144 334.000,258.500" stroke-width="4.560" stroke="black" fill="none" stroke-linecap="round"></path><path d="M 334.000,258.500 C 341.660,258.238 341.350,258.820 349.000,256.500" stroke-width="3.322" stroke="black" fill="none" stroke-linecap="round"></path><path d="M 349.000,256.500 C 360.412,252.681 360.660,253.738 372.000,249.500" stroke-width="2.559" stroke="black" fill="none" stroke-linecap="round"></path><path d="M 372.000,249.500 C 386.110,246.389 385.912,245.681 400.000,242.500" stroke-width="2.145" stroke="black" fill="none" stroke-linecap="round"></path><path d="M 400.000,242.500 C 410.948,238.816 411.110,239.389 422.000,235.500" stroke-width="2.308" stroke="black" fill="none" stroke-linecap="round"></path><path d="M 422.000,235.500 C 427.219,232.573 425.948,234.316 430.000,233.500" stroke-width="3.177" stroke="black" fill="none" stroke-linecap="round"></path><path d="M 430.000,233.500 C 431.000,236.000 431.719,234.073 431.000,238.500" stroke-width="4.379" stroke="black" fill="none" stroke-linecap="round"></path><path d="M 431.000,238.500 C 429.113,241.505 431.000,241.000 430.000,243.500" stroke-width="4.863" stroke="black" fill="none" stroke-linecap="round"></path><path d="M 430.000,243.500 C 432.500,245.500 431.113,246.005 435.000,247.500" stroke-width="5.211" stroke="black" fill="none" stroke-linecap="round"></path><path d="M 435.000,247.500 C 437.570,249.417 437.500,249.500 440.000,251.500" stroke-width="5.060" stroke="black" fill="none" stroke-linecap="round"></path><path d="M 440.000,251.500 C 444.017,256.510 444.570,255.417 449.000,259.500" stroke-width="4.364" stroke="black" fill="none" stroke-linecap="round"></path><path d="M 449.000,259.500 C 452.055,259.764 451.517,261.010 455.000,260.500" stroke-width="4.207" stroke="black" fill="none" stroke-linecap="round"></path><path d="M 455.000,260.500 C 459.930,262.293 460.055,261.764 465.000,263.500" stroke-width="3.674" stroke="black" fill="none" stroke-linecap="round"></path><path d="M 465.000,263.500 C 470.469,264.849 470.430,264.793 476.000,265.500" stroke-width="3.529" stroke="black" fill="none" stroke-linecap="round"></path><path d="M 476.000,265.500 C 479.079,265.987 478.969,265.849 482.000,265.500" stroke-width="3.985" stroke="black" fill="none" stroke-linecap="round"></path><path d="M 482.000,265.500 C 485.143,264.819 485.079,264.987 488.000,263.500" stroke-width="4.458" stroke="black" fill="none" stroke-linecap="round"></path><path d="M 488.000,263.500 C 491.430,261.370 491.643,261.819 495.000,259.500" stroke-width="3.930" stroke="black" fill="none" stroke-linecap="round"></path><path d="M 495.000,259.500 C 501.956,255.909 501.930,255.870 509.000,252.500" stroke-width="3.101" stroke="black" fill="none" stroke-linecap="round"></path><path d="M 509.000,252.500 C 517.548,248.598 517.456,248.409 526.000,244.500" stroke-width="2.848" stroke="black" fill="none" stroke-linecap="round"></path><path d="M 526.000,244.500 C 534.130,240.737 534.048,240.598 542.000,236.500" stroke-width="2.829" stroke="black" fill="none" stroke-linecap="round"></path><path d="M 542.000,236.500 C 547.667,234.167 547.130,233.737 552.000,230.500" stroke-width="3.166" stroke="black" fill="none" stroke-linecap="round"></path><path d="M 552.000,230.500 C 553.933,228.167 554.167,228.667 555.000,225.500" stroke-width="3.819" stroke="black" fill="none" stroke-linecap="round"></path><path d="M 555.000,225.500 C 555.613,223.018 555.933,223.167 556.000,220.500" stroke-width="4.197" stroke="black" fill="none" stroke-linecap="round"></path><path d="M 556.000,220.500 C 556.789,216.518 556.613,216.518 557.000,212.500" stroke-width="3.922" stroke="black" fill="none" stroke-linecap="round"></path><path d="M 557.000,212.500 C 557.220,206.992 557.289,207.018 557.000,201.500" stroke-width="3.610" stroke="black" fill="none" stroke-linecap="round"></path><path d="M 557.000,201.500 C 557.687,194.247 556.720,194.492 556.000,187.500" stroke-width="3.158" stroke="black" fill="none" stroke-linecap="round"></path><path d="M 556.000,187.500 C 552.865,176.088 553.187,176.247 548.000,165.500" stroke-width="2.559" stroke="black" fill="none" stroke-linecap="round"></path><path d="M 548.000,165.500 C 543.903,157.725 544.365,157.588 539.000,150.500" stroke-width="2.758" stroke="black" fill="none" stroke-linecap="round"></path><path d="M 539.000,150.500 C 534.331,143.719 534.403,143.725 529.000,137.500" stroke-width="2.831" stroke="black" fill="none" stroke-linecap="round"></path><path d="M 529.000,137.500 C 522.470,129.503 522.331,129.719 515.000,122.500" stroke-width="2.686" stroke="black" fill="none" stroke-linecap="round"></path><path d="M 515.000,122.500 C 506.522,114.265 506.470,114.503 497.000,107.500" stroke-width="2.512" stroke="black" fill="none" stroke-linecap="round"></path><path d="M 497.000,107.500 C 487.264,101.008 487.522,100.765 477.000,95.500" stroke-width="2.351" stroke="black" fill="none" stroke-linecap="round"></path><path d="M 477.000,95.500 C 466.692,90.044 466.764,90.008 456.000,85.500" stroke-width="2.368" stroke="black" fill="none" stroke-linecap="round"></path><path d="M 456.000,85.500 C 446.599,81.700 446.692,81.544 437.000,78.500" stroke-width="2.504" stroke="black" fill="none" stroke-linecap="round"></path><path d="M 437.000,78.500 C 428.611,75.526 428.599,75.700 420.000,73.500" stroke-width="2.617" stroke="black" fill="none" stroke-linecap="round"></path><path d="M 420.000,73.500 C 411.451,72.240 411.611,71.526 403.000,70.500" stroke-width="2.679" stroke="black" fill="none" stroke-linecap="round"></path><path d="M 403.000,70.500 C 394.566,68.171 394.451,68.740 386.000,66.500" stroke-width="2.745" stroke="black" fill="none" stroke-linecap="round"></path><path d="M 386.000,66.500 C 374.056,64.007 374.066,64.171 362.000,62.500" stroke-width="2.488" stroke="black" fill="none" stroke-linecap="round"></path><path d="M 362.000,62.500 C 354.009,61.722 354.056,61.507 346.000,61.500" stroke-width="2.705" stroke="black" fill="none" stroke-linecap="round"></path><path d="M 346.000,61.500 C 336.000,61.500 336.009,61.222 326.000,61.500" stroke-width="2.619" stroke="black" fill="none" stroke-linecap="round"></path><path d="M 326.000,61.500 C 317.000,61.500 317.000,61.500 308.000,61.500" stroke-width="2.752" stroke="black" fill="none" stroke-linecap="round"></path><path d="M 308.000,61.500 C 288.991,61.167 289.000,61.500 270.000,61.500" stroke-width="1.954" stroke="black" fill="none" stroke-linecap="round"></path><path d="M 270.000,61.500 C 260.348,61.024 260.491,61.667 251.000,62.500" stroke-width="2.397" stroke="black" fill="none" stroke-linecap="round"></path><path d="M 251.000,62.500 C 241.570,65.312 241.348,64.024 232.000,67.500" stroke-width="2.542" stroke="black" fill="none" stroke-linecap="round"></path><path d="M 232.000,67.500 C 223.840,68.409 224.070,69.312 216.000,70.500" stroke-width="2.709" stroke="black" fill="none" stroke-linecap="round"></path><path d="M 216.000,70.500 C 208.820,72.577 208.840,72.409 202.000,75.500" stroke-width="2.907" stroke="black" fill="none" stroke-linecap="round"></path><path d="M 202.000,75.500 C 194.766,78.597 194.820,78.577 188.000,82.500" stroke-width="2.922" stroke="black" fill="none" stroke-linecap="round"></path><path d="M 188.000,82.500 C 181.866,86.310 181.766,86.097 176.000,90.500" stroke-width="3.006" stroke="black" fill="none" stroke-linecap="round"></path><path d="M 176.000,90.500 C 168.268,96.899 167.866,96.310 160.000,102.500" stroke-width="2.633" stroke="black" fill="none" stroke-linecap="round"></path><path d="M 160.000,102.500 C 152.186,106.544 152.768,107.399 145.000,111.500" stroke-width="2.729" stroke="black" fill="none" stroke-linecap="round"></path><path d="M 145.000,111.500 C 137.925,116.907 137.686,116.544 131.000,122.500" stroke-width="2.742" stroke="black" fill="none" stroke-linecap="round"></path><path d="M 131.000,122.500 C 124.653,127.145 124.925,127.407 119.000,132.500" stroke-width="2.814" stroke="black" fill="none" stroke-linecap="round"></path><path d="M 119.000,132.500 C 115.100,136.208 115.153,136.145 112.000,140.500" stroke-width="3.238" stroke="black" fill="none" stroke-linecap="round"></path><path d="M 112.000,140.500 C 109.000,145.500 108.600,145.208 106.000,150.500" stroke-width="3.306" stroke="black" fill="none" stroke-linecap="round"></path><path d="M 106.000,150.500 C 102.597,155.306 103.000,155.500 100.000,160.500" stroke-width="3.327" stroke="black" fill="none" stroke-linecap="round"></path><path d="M 100.000,160.500 C 98.710,164.592 98.097,164.306 97.000,168.500" stroke-width="3.558" stroke="black" fill="none" stroke-linecap="round"></path><path d="M 97.000,168.500 C 94.698,172.375 95.210,172.592 93.000,176.500" stroke-width="3.646" stroke="black" fill="none" stroke-linecap="round"></path><path d="M 93.000,176.500 C 91.337,180.953 91.198,180.875 90.000,185.500" stroke-width="3.621" stroke="black" fill="none" stroke-linecap="round"></path><path d="M 90.000,185.500 C 88.452,189.433 88.837,189.453 88.000,193.500" stroke-width="3.736" stroke="black" fill="none" stroke-linecap="round"></path><path d="M 88.000,193.500 C 88.000,198.500 87.452,198.433 88.000,203.500" stroke-width="3.540" stroke="black" fill="none" stroke-linecap="round"></path><path d="M 88.000,203.500 C 87.363,207.103 88.000,207.000 88.000,210.500" stroke-width="3.840" stroke="black" fill="none" stroke-linecap="round"></path><path d="M 88.000,210.500 C 89.241,215.102 88.863,215.103 91.000,219.500" stroke-width="3.676" stroke="black" fill="none" stroke-linecap="round"></path><path d="M 91.000,219.500 C 93.209,225.151 93.241,225.102 96.000,230.500" stroke-width="3.333" stroke="black" fill="none" stroke-linecap="round"></path><path d="M 96.000,230.500 C 99.046,236.816 99.209,236.651 103.000,242.500" stroke-width="3.163" stroke="black" fill="none" stroke-linecap="round"></path><path d="M 103.000,242.500 C 106.798,248.750 107.046,248.316 112.000,253.500" stroke-width="3.093" stroke="black" fill="none" stroke-linecap="round"></path><path d="M 112.000,253.500 C 118.669,259.049 118.298,259.250 126.000,263.500" stroke-width="2.815" stroke="black" fill="none" stroke-linecap="round"></path><path d="M 126.000,263.500 C 132.667,267.971 132.669,267.549 140.000,270.500" stroke-width="2.894" stroke="black" fill="none" stroke-linecap="round"></path><path d="M 140.000,270.500 C 147.431,272.477 147.167,272.971 155.000,273.500" stroke-width="2.940" stroke="black" fill="none" stroke-linecap="round"></path><path d="M 155.000,273.500 C 165.982,274.753 165.931,274.977 177.000,275.500" stroke-width="2.576" stroke="black" fill="none" stroke-linecap="round"></path><path d="M 177.000,275.500 C 195.488,276.956 195.482,276.753 214.000,277.500" stroke-width="1.953" stroke="black" fill="none" stroke-linecap="round"></path><path d="M 214.000,277.500 C 229.502,277.707 229.488,277.956 245.000,277.500" stroke-width="1.926" stroke="black" fill="none" stroke-linecap="round"></path><path d="M 245.000,277.500 C 267.136,278.550 267.002,277.207 289.000,276.500" stroke-width="1.660" stroke="black" fill="none" stroke-linecap="round"></path><path d="M 289.000,276.500 C 315.010,272.561 315.136,274.050 341.000,268.500" stroke-width="1.400" stroke="black" fill="none" stroke-linecap="round"></path><path d="M 341.000,268.500 C 363.069,265.386 363.010,265.061 385.000,261.500" stroke-width="1.504" stroke="black" fill="none" stroke-linecap="round"></path><path d="M 385.000,261.500 C 402.599,258.429 402.569,258.386 420.000,254.500" stroke-width="1.709" stroke="black" fill="none" stroke-linecap="round"></path><path d="M 420.000,254.500 C 433.426,250.677 433.599,251.429 447.000,247.500" stroke-width="1.934" stroke="black" fill="none" stroke-linecap="round"></path><path d="M 447.000,247.500 C 457.063,245.771 456.926,245.177 467.000,243.500" stroke-width="2.332" stroke="black" fill="none" stroke-linecap="round"></path><path d="M 467.000,243.500 C 474.421,241.124 474.563,241.771 482.000,239.500" stroke-width="2.727" stroke="black" fill="none" stroke-linecap="round"></path><path d="M 482.000,239.500 C 488.471,238.122 488.421,238.124 495.000,237.500" stroke-width="3.023" stroke="black" fill="none" stroke-linecap="round"></path><path d="M 495.000,237.500 C 499.030,237.805 498.971,237.122 503.000,237.500" stroke-width="3.498" stroke="black" fill="none" stroke-linecap="round"></path></svg>